<svg xmlns="http://www.w3.org/2000/svg" xmlns:xlink="http://www.w3.org/1999/xlink" preserveAspectRatio="xMidYMid" width="132.593" height="108.53" viewBox="0 0 132.593 108.53">
  <defs>
    <style>
      .cls-1 {
        fill: #000;
        fill-rule: evenodd;
      }
    </style>
  </defs>
  <path d="M131.899,29.715 C131.321,26.375 129.346,22.288 129.346,22.288 C129.346,22.288 131.609,18.111 132.305,15.674 C133.001,13.237 132.479,9.060 130.564,6.449 C128.650,3.838 125.168,3.142 122.035,2.446 C118.902,1.750 116.466,1.227 114.551,2.620 C112.636,4.012 109.155,7.667 108.111,8.538 C107.067,9.408 106.893,9.060 106.893,9.060 C106.893,9.060 90.531,1.401 87.572,0.705 C84.613,0.009 80.784,-0.513 75.388,0.879 C69.993,2.272 64.597,5.579 60.594,10.104 C56.590,14.630 39.707,33.602 30.134,45.264 C20.561,56.925 2.807,78.508 2.807,78.508 C2.807,78.508 1.676,78.421 0.979,78.769 C0.283,79.117 -0.326,80.249 0.196,81.380 C0.718,82.512 9.856,94.957 9.856,94.957 L40.316,108.533 C40.316,108.533 41.447,107.489 42.057,106.792 C42.666,106.096 43.014,103.485 43.014,103.485 C43.014,103.485 52.239,96.697 58.244,92.607 C64.249,88.516 73.561,83.382 76.085,81.815 C78.608,80.249 83.395,79.379 86.354,79.901 C89.313,80.423 94.970,83.208 101.584,82.773 C108.198,82.338 116.611,77.330 121.833,70.107 C127.054,62.884 129.392,56.636 130.088,54.199 C130.785,51.762 132.010,45.308 132.421,41.202 C132.827,37.141 132.421,32.732 131.899,29.715 ZM10.867,93.770 L6.220,87.149 L31.526,98.525 L37.041,105.781 L10.867,93.770 ZM79.682,38.301 L51.949,26.349 C51.949,26.349 57.403,19.967 60.304,16.602 C63.204,13.237 66.395,10.336 66.395,10.336 L93.664,22.520 C93.664,22.520 90.821,26.233 87.804,29.250 C84.787,32.267 79.682,38.301 79.682,38.301 ZM124.456,56.242 C118.860,67.956 107.971,74.418 100.136,70.675 C98.798,70.036 97.641,69.136 96.661,68.033 C97.409,68.693 98.871,69.080 99.784,69.516 C107.619,73.259 117.008,66.855 122.605,55.140 C127.246,45.425 126.671,35.672 122.891,29.908 C128.557,34.910 129.401,45.892 124.456,56.242 ZM127.547,20.083 C127.547,20.083 125.749,18.343 124.704,17.647 C123.660,16.950 122.384,15.674 122.384,15.674 C122.384,15.674 122.964,12.773 124.472,11.961 C125.981,11.149 127.257,10.684 128.650,12.657 C130.042,14.630 129.462,16.486 129.114,17.183 C128.766,17.879 127.547,20.083 127.547,20.083 Z" class="cls-1"/>
</svg>
