<svg xmlns="http://www.w3.org/2000/svg" xmlns:xlink="http://www.w3.org/1999/xlink" preserveAspectRatio="xMidYMid" width="145.874" height="128.41" viewBox="0 0 145.874 128.41">
  <defs>
    <style>
      .cls-1 {
        fill: #000;
        fill-rule: evenodd;
      }
    </style>
  </defs>
  <path d="M138.091,18.377 C147.453,29.544 148.381,45.413 140.710,64.549 C135.913,76.517 129.161,86.362 126.366,90.187 C127.446,92.221 127.938,94.646 127.575,97.209 C126.892,102.028 123.148,105.873 118.545,106.481 C111.714,107.384 105.943,101.346 106.765,94.178 C107.328,89.272 111.066,85.294 115.727,84.616 C118.240,84.251 120.600,84.846 122.558,86.077 C128.925,77.133 151.015,43.066 134.306,22.436 L131.617,25.321 C131.257,25.707 130.633,25.539 130.494,25.018 L126.767,11.001 C126.628,10.480 127.079,9.996 127.578,10.131 L141.000,13.749 C141.499,13.883 141.672,14.535 141.312,14.922 L138.091,18.377 ZM117.190,90.168 C114.369,90.168 112.074,92.578 112.074,95.540 C112.074,98.503 114.369,100.912 117.190,100.912 C120.011,100.912 122.305,98.503 122.305,95.540 C122.305,92.578 120.011,90.168 117.190,90.168 ZM114.080,64.537 C114.499,64.978 114.499,65.693 114.080,66.133 L110.201,70.206 C109.782,70.647 109.101,70.647 108.682,70.206 L104.192,65.492 C103.773,65.051 103.092,65.051 102.672,65.492 L98.183,70.206 C97.764,70.647 97.083,70.647 96.664,70.206 L92.786,66.133 C92.366,65.693 92.366,64.978 92.786,64.537 L97.275,59.823 C97.694,59.382 97.694,58.667 97.275,58.226 L92.786,53.512 C92.366,53.071 92.366,52.356 92.786,51.916 L96.664,47.843 C97.083,47.402 97.764,47.402 98.183,47.843 L102.672,52.558 C103.092,52.998 103.773,52.998 104.192,52.558 L108.682,47.843 C109.101,47.402 109.782,47.402 110.201,47.843 L114.080,51.916 C114.499,52.356 114.499,53.071 114.080,53.512 L109.590,58.226 C109.171,58.667 109.171,59.382 109.590,59.823 L114.080,64.537 ZM79.051,40.578 C79.470,41.018 79.470,41.733 79.051,42.174 L75.173,46.247 C74.753,46.688 74.073,46.688 73.653,46.247 L69.164,41.532 C68.744,41.091 68.063,41.091 67.644,41.532 L63.154,46.247 C62.735,46.688 62.054,46.688 61.635,46.247 L57.757,42.174 C57.337,41.733 57.337,41.018 57.757,40.578 L62.246,35.863 C62.666,35.422 62.666,34.708 62.246,34.267 L57.757,29.552 C57.337,29.112 57.337,28.397 57.757,27.956 L61.635,23.883 C62.054,23.442 62.735,23.442 63.154,23.883 L67.644,28.598 C68.063,29.039 68.744,29.039 69.164,28.598 L73.653,23.883 C74.073,23.442 74.753,23.442 75.173,23.883 L79.051,27.956 C79.470,28.397 79.470,29.112 79.051,29.552 L74.562,34.267 C74.142,34.708 74.142,35.422 74.562,35.863 L79.051,40.578 ZM58.697,15.033 C58.349,15.433 57.720,15.288 57.564,14.772 L56.304,10.601 C29.642,19.096 33.571,63.374 34.914,73.963 C40.233,74.500 44.406,79.217 44.406,84.941 C44.406,91.443 39.022,96.649 32.690,95.900 C28.048,95.350 24.227,91.510 23.525,86.660 C22.774,81.480 25.485,76.847 29.588,74.895 C28.949,70.060 27.763,58.422 29.060,45.850 C31.325,23.902 40.181,9.858 54.675,5.208 L53.373,0.900 C53.217,0.384 53.652,-0.115 54.155,0.001 L67.689,3.125 C68.193,3.241 68.387,3.886 68.040,4.285 L58.697,15.033 ZM28.788,84.941 C28.788,87.903 31.082,90.313 33.903,90.313 C36.724,90.313 39.018,87.903 39.018,84.941 C39.018,81.978 36.724,79.568 33.903,79.568 C31.082,79.568 28.788,81.978 28.788,84.941 ZM21.576,55.936 C21.996,56.377 21.996,57.092 21.576,57.532 L17.698,61.605 C17.278,62.046 16.598,62.046 16.178,61.605 L11.689,56.890 C11.269,56.450 10.589,56.450 10.169,56.890 L5.680,61.605 C5.260,62.046 4.580,62.046 4.160,61.605 L0.282,57.532 C-0.138,57.092 -0.138,56.377 0.282,55.936 L4.771,51.221 C5.191,50.781 5.191,50.066 4.771,49.625 L0.282,44.911 C-0.138,44.470 -0.138,43.755 0.282,43.315 L4.160,39.242 C4.580,38.801 5.260,38.801 5.680,39.242 L10.169,43.956 C10.589,44.397 11.269,44.397 11.689,43.956 L16.178,39.242 C16.598,38.801 17.278,38.801 17.698,39.242 L21.576,43.315 C21.996,43.755 21.996,44.470 21.576,44.911 L17.087,49.625 C16.667,50.066 16.667,50.781 17.087,51.221 L21.576,55.936 ZM68.731,106.334 C74.523,106.334 79.234,111.282 79.234,117.364 C79.234,123.447 74.523,128.395 68.731,128.395 C62.940,128.395 58.228,123.447 58.228,117.364 C58.228,111.282 62.940,106.334 68.731,106.334 ZM68.731,122.737 C71.552,122.737 73.847,120.327 73.847,117.364 C73.847,114.402 71.552,111.992 68.731,111.992 C65.911,111.992 63.616,114.402 63.616,117.364 C63.616,120.327 65.911,122.737 68.731,122.737 Z" class="cls-1"/>
</svg>
