<svg xmlns="http://www.w3.org/2000/svg" xmlns:xlink="http://www.w3.org/1999/xlink" preserveAspectRatio="xMidYMid" width="128.719" height="94.12" viewBox="0 0 128.719 94.12">
  <defs>
    <style>
      .cls-1 {
        fill: #000;
        fill-rule: evenodd;
      }
    </style>
  </defs>
  <path d="M-0.000,94.113 L-0.000,-0.002 L128.716,-0.002 L128.716,94.113 L-0.000,94.113 ZM66.088,45.192 C67.098,45.628 67.772,46.624 67.772,47.747 C67.772,48.871 67.098,49.867 66.088,50.303 L66.088,64.578 C74.981,64.005 81.866,56.719 81.866,47.747 C81.866,38.776 74.981,31.490 66.088,30.917 L66.088,45.192 ZM2.214,57.943 L8.581,57.943 L8.581,36.352 L2.214,36.352 L2.214,57.943 ZM2.214,34.137 L10.795,34.137 L10.795,60.157 L2.214,60.157 L2.214,70.676 L22.421,70.676 L22.421,23.804 L2.214,23.804 L2.214,34.137 ZM63.874,50.303 C62.864,49.867 62.189,48.871 62.189,47.747 C62.189,46.624 62.864,45.628 63.874,45.192 L63.874,30.917 C54.980,31.490 48.095,38.776 48.095,47.747 C48.095,56.719 54.980,64.005 63.874,64.578 L63.874,50.303 ZM63.874,66.795 C53.741,66.220 45.881,57.954 45.881,47.747 C45.881,37.541 53.741,29.275 63.874,28.699 L63.874,2.212 L5.821,2.212 C5.062,4.850 3.289,5.793 2.214,6.127 L2.214,21.589 L24.636,21.589 L24.636,31.747 C31.027,34.190 35.293,40.390 35.293,47.298 C35.293,54.205 31.027,60.405 24.636,62.849 L24.636,72.891 L2.214,72.891 L2.214,88.455 C4.703,89.168 5.687,90.765 6.076,91.898 L63.874,91.898 L63.874,66.795 ZM24.636,34.144 L24.636,60.452 C29.718,58.140 33.078,52.955 33.078,47.298 C33.078,41.640 29.718,36.456 24.636,34.144 ZM126.502,36.410 L120.135,36.410 L120.135,58.001 L126.502,58.001 L126.502,36.410 ZM126.502,60.216 L117.921,60.216 L117.921,34.196 L126.502,34.196 L126.502,23.861 L106.295,23.861 L106.295,70.735 L126.502,70.735 L126.502,60.216 ZM126.502,72.949 L104.080,72.949 L104.080,62.907 C97.689,60.462 93.423,54.262 93.423,47.355 C93.423,40.449 97.689,34.249 104.080,31.804 L104.080,21.646 L126.502,21.646 L126.502,6.146 C123.620,5.319 122.755,3.301 122.497,2.212 L66.088,2.212 L66.088,28.699 C76.221,29.275 84.080,37.541 84.080,47.747 C84.080,57.954 76.221,66.220 66.088,66.795 L66.088,91.898 L122.375,91.898 C123.248,88.867 125.474,88.066 126.502,87.856 L126.502,72.949 ZM104.080,60.509 L104.080,34.201 C98.998,36.513 95.637,41.698 95.637,47.355 C95.637,53.013 98.998,58.198 104.080,60.509 ZM112.108,45.268 C113.125,45.268 113.953,46.095 113.953,47.113 C113.953,48.130 113.125,48.959 112.108,48.959 C111.090,48.959 110.262,48.130 110.262,47.113 C110.262,46.095 111.090,45.268 112.108,45.268 ZM16.608,48.901 C15.591,48.901 14.763,48.073 14.763,47.055 C14.763,46.038 15.591,45.210 16.608,45.210 C17.626,45.210 18.453,46.038 18.453,47.055 C18.453,48.073 17.626,48.901 16.608,48.901 Z" class="cls-1"/>
</svg>
