<svg xmlns="http://www.w3.org/2000/svg" xmlns:xlink="http://www.w3.org/1999/xlink" preserveAspectRatio="xMidYMid" width="122.969" height="128.34" viewBox="0 0 122.969 128.34">
  <defs>
    <style>
      .cls-1 {
        fill: #000;
        fill-rule: evenodd;
      }
    </style>
  </defs>
  <path d="M122.025,126.980 C121.275,127.853 120.183,128.354 119.031,128.354 L106.500,128.354 L111.236,91.096 L113.885,92.030 C116.651,93.004 118.641,95.412 119.080,98.313 L122.936,123.815 C123.108,124.953 122.776,126.107 122.025,126.980 ZM116.026,98.774 C115.986,98.511 115.919,98.258 115.839,98.010 L113.064,125.264 L119.031,125.264 C119.375,125.264 119.587,125.077 119.683,124.966 C119.779,124.854 119.932,124.616 119.881,124.277 L116.026,98.774 ZM83.608,81.355 L103.412,88.337 L100.238,113.310 L23.038,113.310 L19.850,88.234 L39.363,81.355 C40.959,80.791 42.127,79.468 42.487,77.815 L43.770,71.908 C39.987,67.359 37.003,61.710 35.184,56.030 C32.510,55.606 31.361,50.116 30.908,46.791 C30.322,42.495 29.594,37.148 33.117,36.564 C33.523,36.496 34.237,36.770 34.600,36.845 C34.613,36.798 34.631,36.754 34.645,36.707 L34.784,21.397 C34.805,19.106 35.369,16.854 36.426,14.832 L42.795,5.517 L47.442,9.282 L46.614,-0.001 L54.840,8.799 L54.081,0.979 L61.486,8.510 L60.720,2.331 L71.309,10.017 C71.309,10.017 89.523,9.674 88.314,31.290 L88.284,36.749 C88.800,36.606 89.417,36.491 89.854,36.564 C93.376,37.148 92.649,42.495 92.063,46.791 C91.597,50.211 90.394,55.922 87.554,56.054 C85.762,61.645 82.846,67.194 79.155,71.697 L80.484,77.815 C80.844,79.468 82.012,80.791 83.608,81.355 ZM85.666,54.311 L86.159,52.637 L87.511,53.742 C87.855,53.568 89.085,51.488 89.767,46.478 C90.070,44.260 90.777,39.066 89.475,38.849 C89.240,38.811 89.023,38.774 88.656,39.211 L88.268,39.673 L88.255,42.103 L86.539,42.087 C86.802,41.596 86.952,41.046 87.021,40.470 L86.637,38.713 C86.098,36.242 85.186,33.924 83.998,31.785 C81.432,30.283 72.341,29.170 61.485,29.170 C49.839,29.170 40.219,30.450 38.519,32.120 C37.475,34.106 36.669,36.254 36.153,38.539 L35.885,39.729 L35.885,39.983 C35.885,40.558 36.002,41.104 36.199,41.610 L34.600,41.595 L34.619,39.516 L34.207,39.106 C33.882,38.783 33.697,38.814 33.495,38.850 C32.194,39.066 32.901,44.260 33.204,46.478 C33.859,51.291 35.020,53.399 35.515,53.717 L36.615,53.240 L37.114,54.429 C40.804,66.836 50.321,79.396 61.373,79.396 C72.475,79.396 81.997,66.777 85.666,54.311 ZM77.466,78.471 L76.881,75.781 C72.102,80.500 66.823,82.978 61.486,82.978 C56.148,82.978 50.869,80.500 46.091,75.780 L45.505,78.471 C45.181,79.965 44.442,81.283 43.417,82.329 L61.486,96.189 L61.509,97.626 L61.532,96.189 L79.575,82.350 C78.538,81.300 77.793,79.975 77.466,78.471 ZM0.946,126.980 C0.195,126.107 -0.137,124.953 0.036,123.814 L3.891,98.313 C4.330,95.412 6.320,93.004 9.086,92.029 L12.026,90.992 L16.775,128.354 L3.940,128.354 C2.788,128.354 1.697,127.853 0.946,126.980 ZM7.169,97.911 C7.072,98.190 6.991,98.476 6.946,98.774 L3.091,124.276 C3.039,124.616 3.192,124.854 3.288,124.966 C3.385,125.077 3.597,125.264 3.940,125.264 L9.954,125.264 L7.169,97.911 ZM98.326,128.354 L24.950,128.354 L24.216,122.578 L99.060,122.578 L98.326,128.354 Z" class="cls-1"/>
</svg>
