<svg xmlns="http://www.w3.org/2000/svg" xmlns:xlink="http://www.w3.org/1999/xlink" preserveAspectRatio="xMidYMid" width="40" height="40" viewBox="0 0 40 40">
  <defs>
    <style>
      .cls-1 {
        fill: #c4c4c4;
        fill-rule: evenodd;
      }
    </style>
  </defs>
  <path d="M19.980,40.000 C8.940,40.000 0.000,31.040 0.000,20.000 C0.000,8.960 8.940,0.000 19.980,0.000 C31.040,0.000 40.000,8.960 40.000,20.000 C40.000,31.040 31.040,40.000 19.980,40.000 ZM20.000,4.000 C11.160,4.000 4.000,11.160 4.000,20.000 C4.000,28.840 11.160,36.000 20.000,36.000 C28.840,36.000 36.000,28.840 36.000,20.000 C36.000,11.160 28.840,4.000 20.000,4.000 ZM18.000,22.000 L18.000,10.000 L21.000,10.000 L21.000,20.500 L30.000,25.840 L28.500,28.300 L18.000,22.000 Z" class="cls-1"/>
</svg>
