<svg xmlns="http://www.w3.org/2000/svg" xmlns:xlink="http://www.w3.org/1999/xlink" preserveAspectRatio="xMidYMid" width="18" height="18" viewBox="0 0 18 18">
  <defs>
    <style>
      .cls-1 {
        fill: #fff;
        fill-rule: evenodd;
      }
    </style>
  </defs>
  <path d="M14.380,7.790 C12.940,10.620 10.620,12.930 7.790,14.380 L5.590,12.180 C5.320,11.910 4.920,11.820 4.570,11.940 C3.450,12.310 2.240,12.510 1.000,12.510 C0.450,12.510 -0.000,12.960 -0.000,13.510 L-0.000,17.000 C-0.000,17.550 0.450,18.000 1.000,18.000 C10.390,18.000 18.000,10.390 18.000,1.000 C18.000,0.450 17.550,0.000 17.000,0.000 L13.500,0.000 C12.950,0.000 12.500,0.450 12.500,1.000 C12.500,2.250 12.300,3.450 11.930,4.570 C11.820,4.920 11.900,5.310 12.180,5.590 L14.380,7.790 Z" class="cls-1"/>
</svg>
