<svg xmlns="http://www.w3.org/2000/svg" xmlns:xlink="http://www.w3.org/1999/xlink" preserveAspectRatio="xMidYMid" width="75.531" height="98.04" viewBox="0 0 75.531 98.04">
  <defs>
    <style>
      .cls-1 {
        fill: #000;
      }

      .cls-1, .cls-2 {
        fill-rule: evenodd;
      }

      .cls-2 {
        fill: #f10000;
      }

      .cls-3, .cls-4 {
        font-size: 36px;
      }

      .cls-4 {
        fill: #fff;
        font-family: "FiraSans-Medium";
      }
    </style>
  </defs>
  <g>
    <path d="M3.104,49.734 C1.673,47.723 -0.765,43.893 0.208,40.879 L11.603,5.575 C12.576,2.562 15.962,0.091 19.129,0.085 L56.227,0.012 C59.393,0.006 62.790,2.464 63.774,5.474 L75.307,40.733 C76.291,43.743 74.024,47.578 72.445,49.599 L42.475,95.281 C40.123,98.977 35.725,98.909 33.159,95.299 L3.104,49.734 Z" class="cls-1"/>
    <path d="M3.104,49.734 C1.673,47.723 -0.765,43.893 0.208,40.879 L11.603,5.575 C12.576,2.562 15.962,0.091 19.129,0.085 L56.227,0.012 C59.393,0.006 62.790,2.464 63.774,5.474 L75.307,40.733 C76.291,43.743 74.024,47.578 72.445,49.599 L42.475,72.681 C40.025,74.252 35.350,74.309 33.159,72.699 L3.104,49.734 Z" class="cls-2"/>
    <text x="27.906" y="44.88" class="cls-3"><tspan class="cls-4">2</tspan></text>
  </g>
</svg>
